<svg width="31" height="24" viewBox="0 0 31 24" fill="none" xmlns="http://www.w3.org/2000/svg">
<path d="M11.92 0.256002C12.176 0.256002 12.304 0.384003 12.304 0.640003V11.776C12.304 14.08 11.76 16.128 10.672 17.92C9.584 19.776 8.176 21.216 6.448 22.24C4.656 23.328 2.736 23.872 0.688 23.872V17.92C2.288 17.92 3.664 17.312 4.816 16.096C5.904 14.88 6.448 13.44 6.448 11.776H1.072C0.815999 11.776 0.688 11.648 0.688 11.392V0.640003C0.688 0.384003 0.815999 0.256002 1.072 0.256002H11.92ZM29.776 0.256002C30.032 0.256002 30.16 0.384003 30.16 0.640003V11.776C30.16 14.08 29.616 16.128 28.528 17.92C27.44 19.776 26.032 21.216 24.304 22.24C22.512 23.328 20.592 23.872 18.544 23.872V17.92C20.144 17.92 21.52 17.312 22.672 16.096C23.76 14.88 24.304 13.44 24.304 11.776H18.928C18.672 11.776 18.544 11.648 18.544 11.392V0.640003C18.544 0.384003 18.672 0.256002 18.928 0.256002H29.776Z" fill="#C6C5C6"/>
</svg>
